<svg width="88" height="88" viewBox="0 0 88 88" fill="none" xmlns="http://www.w3.org/2000/svg">
<path d="M76.7588 0.00657118C76.3547 0.0566712 75.9674 0.233781 75.665 0.506571L66.665 8.50657C66.2486 8.88435 66.0036 9.44433 66.0088 10.0066V19.1628L33.6026 51.5691C33.4095 51.7523 33.2549 51.9722 33.1478 52.2159C33.0408 52.4596 32.9834 52.7222 32.9792 52.9883C32.9749 53.2545 33.0238 53.5188 33.123 53.7658C33.2223 54.0128 33.3698 54.2375 33.557 54.4268C33.7441 54.6161 33.9672 54.766 34.2131 54.868C34.459 54.9699 34.7227 55.0217 34.9889 55.0204C35.2551 55.0191 35.5183 54.9647 35.7632 54.8604C36.0081 54.756 36.2297 54.6038 36.415 54.4128L68.8213 22.0066H78.0088C78.5757 22.0036 79.1367 21.7468 79.5088 21.3191L87.5088 12.3191C88.0078 11.745 88.1351 10.887 87.8213 10.1941C87.5075 9.50117 86.7694 9.01018 86.0088 9.00657H79.0088V2.00657C79.0188 0.870641 77.8859 -0.135329 76.7588 0.00657118ZM35.0088 18.0066C15.6789 18.0066 0.00878906 33.6766 0.00878906 53.0066C0.00878906 72.3364 15.6789 88.0066 35.0088 88.0066C54.3387 88.0066 70.0088 72.3364 70.0088 53.0066C70.0088 44.7758 67.1388 37.233 62.3838 31.2566L54.54 39.1003C57.3466 43.0287 59.0088 47.8226 59.0088 53.0066C59.0088 66.2376 48.2399 77.0066 35.0088 77.0066C21.7777 77.0066 11.0088 66.2376 11.0088 53.0066C11.0088 39.7753 21.7777 29.0066 35.0088 29.0066C40.1772 29.0066 44.9619 30.6528 48.8838 33.4441L56.7276 25.6003C50.7565 20.8619 43.2236 18.0066 35.0088 18.0066ZM35.0088 33.0066C23.9395 33.0066 15.0088 41.9371 15.0088 53.0066C15.0088 64.0758 23.9395 73.0066 35.0088 73.0066C46.0781 73.0066 55.0088 64.0758 55.0088 53.0066C55.0088 48.9111 53.7973 45.11 51.6963 41.9441L43.5088 50.1316C43.8136 51.0352 44.0088 52.0001 44.0088 53.0066C44.0088 57.9771 39.9794 62.0066 35.0088 62.0066C30.0383 62.0066 26.0088 57.9771 26.0088 53.0066C26.0088 48.0359 30.0383 44.0066 35.0088 44.0066C36.0008 44.0066 36.9599 44.1789 37.8526 44.4753L46.0088 36.3191C42.8517 34.2361 39.0851 33.0066 35.0088 33.0066Z" fill="#FC649F"/>
</svg>
