<svg width="59" height="59" viewBox="0 0 59 59" fill="none" xmlns="http://www.w3.org/2000/svg">
<g clip-path="url(#clip0_292_264)">
<path d="M29.5 59C37.3239 59 44.8273 55.892 50.3596 50.3596C55.892 44.8273 59 37.3239 59 29.5C59 21.6761 55.892 14.1727 50.3596 8.64035C44.8273 3.10803 37.3239 0 29.5 0C21.6761 0 14.1727 3.10803 8.64035 8.64035C3.10803 14.1727 0 21.6761 0 29.5C0 37.3239 3.10803 44.8273 8.64035 50.3596C14.1727 55.892 21.6761 59 29.5 59ZM42.5215 24.084L27.7715 38.834C26.6883 39.9172 24.9367 39.9172 23.865 38.834L16.49 31.459C15.4068 30.3758 15.4068 28.6242 16.49 27.5525C17.5732 26.4809 19.3248 26.4693 20.3965 27.5525L25.8125 32.9686L38.6035 20.166C39.6867 19.0828 41.4383 19.0828 42.51 20.166C43.5816 21.2492 43.5932 23.0008 42.51 24.0725L42.5215 24.084Z" fill="#FC649F"/>
</g>
<defs>
<clipPath id="clip0_292_264">
<rect width="59" height="59" fill="white"/>
</clipPath>
</defs>
</svg>
