<svg width="24" height="23" viewBox="0 0 24 23" fill="none" xmlns="http://www.w3.org/2000/svg">
<path d="M4.54812 1.94745L12.0001 9.39945L19.4214 1.97811C19.6843 1.69843 20.0497 1.53789 20.4335 1.53345C21.2803 1.53345 21.9668 2.21992 21.9668 3.06678C21.974 3.44674 21.8242 3.8129 21.5528 4.07878L14.0548 11.5001L21.5528 18.9981C21.8055 19.2453 21.9538 19.5802 21.9668 19.9334C21.9668 20.7803 21.2803 21.4668 20.4335 21.4668C20.0383 21.4832 19.6545 21.3329 19.3755 21.0528L12.0001 13.6008L4.56345 21.0374C4.30171 21.3078 3.94291 21.4623 3.56678 21.4668C2.71993 21.4668 2.03345 20.7803 2.03345 19.9334C2.02624 19.5535 2.17605 19.1873 2.44745 18.9214L9.94545 11.5001L2.44745 4.00211C2.19476 3.75494 2.04648 3.42006 2.03345 3.06678C2.03345 2.21992 2.71993 1.53345 3.56678 1.53345C3.9354 1.53789 4.28761 1.68647 4.54812 1.94745Z" fill="#FC649F"/>
</svg>
