<svg width="204" height="78" viewBox="0 0 204 78" fill="none" xmlns="http://www.w3.org/2000/svg">
<path d="M80.7254 56.5489L82.6273 57.1676L80.7254 56.5489ZM202.232 20.1797C203.314 20.4025 204.01 21.4602 203.787 22.542L200.157 40.1721C199.934 41.2539 198.876 41.9504 197.794 41.7276C196.713 41.5048 196.016 40.4472 196.239 39.3653L199.466 23.6941L183.795 20.4669C182.713 20.2442 182.017 19.1865 182.239 18.1047C182.462 17.0228 183.52 16.3264 184.602 16.5492L202.232 20.1797ZM4.32822 0.171422C4.19123 8.5374 5.57253 14.5946 7.90905 18.9805C10.2265 23.3305 13.5523 26.1674 17.5735 28.0036C25.791 31.7561 36.8552 31.3334 47.9901 30.4782C53.4549 30.0585 58.9367 29.5396 63.8399 29.4625C68.7208 29.3857 73.3154 29.7339 76.979 31.2007C80.7797 32.7224 83.5862 35.4612 84.645 39.9168C85.661 44.1919 85.0139 49.8316 82.6273 57.1676L78.8235 55.9302C81.129 48.8434 81.5159 44.0503 80.7534 40.8416C80.0338 37.8135 78.2493 36.018 75.4923 34.9142C72.5981 33.7554 68.668 33.387 63.9028 33.462C59.1601 33.5366 53.8745 34.038 48.2964 34.4664C37.3454 35.3076 25.221 35.8931 15.9119 31.6422C11.1699 29.4768 7.14792 26.0591 4.37877 20.8612C1.62868 15.6991 0.184505 8.91503 0.328759 0.105925L4.32822 0.171422ZM82.6273 57.1676C80.3226 64.2519 80.7157 68.3204 82.1977 70.5144C83.6209 72.6213 86.6002 73.7637 91.6303 73.5131C96.579 73.2666 102.914 71.6849 110.127 69.1286C117.313 66.5822 125.25 63.1128 133.366 59.1782C149.599 51.3093 166.437 41.6345 179.234 33.9155C185.628 30.0582 191.005 26.6942 194.783 24.2951C196.671 23.0957 198.16 22.1377 199.175 21.4802C199.683 21.1514 200.072 20.8978 200.334 20.7267C200.465 20.6411 200.564 20.5762 200.63 20.5328C200.663 20.5111 200.688 20.4948 200.705 20.484C200.713 20.4786 200.719 20.4746 200.723 20.4719C200.725 20.4706 200.726 20.4697 200.727 20.469C200.728 20.4685 200.729 20.4682 201.828 22.1386C202.928 23.809 202.928 23.8095 202.926 23.8103C202.925 23.811 202.923 23.8122 202.921 23.8137C202.917 23.8167 202.91 23.821 202.901 23.8267C202.884 23.8382 202.858 23.8552 202.824 23.8775C202.756 23.9222 202.655 23.9885 202.522 24.0755C202.255 24.2494 201.862 24.5059 201.349 24.8376C200.325 25.501 198.827 26.4654 196.927 27.6717C193.129 30.0841 187.725 33.4647 181.3 37.3406C168.457 45.0877 151.501 54.8325 135.111 62.7776C126.917 66.7499 118.836 70.2861 111.463 72.8989C104.118 75.5018 97.3541 77.233 91.8293 77.5082C86.3857 77.7793 81.5167 76.6522 78.8831 72.7535C76.3083 68.9418 76.4361 63.2687 78.8235 55.9302L82.6273 57.1676Z" fill="#FE761E"/>
</svg>
