<svg width="61" height="85" viewBox="0 0 61 85" fill="none" xmlns="http://www.w3.org/2000/svg">
<path d="M33.5 25.0001L32.901 23.092L33.5 25.0001ZM27.0092 82.6916C27.1151 83.7911 28.0922 84.5966 29.1917 84.4907L47.1088 82.7659C48.2083 82.6601 49.0138 81.6829 48.908 80.5835C48.8021 79.484 47.825 78.6785 46.7255 78.7843L30.7992 80.3175L29.266 64.3911C29.1601 63.2916 28.183 62.4861 27.0835 62.592C25.984 62.6978 25.1785 63.6749 25.2844 64.7744L27.0092 82.6916ZM0.364242 4.9651C8.88465 4.91356 14.747 5.50197 18.6432 6.47801C22.6185 7.47386 24.109 8.76151 24.6046 9.7125C25.0503 10.5677 24.9958 11.7768 24.0132 13.595C23.0455 15.3855 21.4049 17.3215 19.5449 19.2544C18.627 20.2083 17.684 21.1331 16.7766 22.018C15.8791 22.8931 15.0014 23.7437 14.2564 24.5117C13.5248 25.2659 12.8367 26.0254 12.3559 26.723C12.1165 27.0703 11.8691 27.4861 11.7097 27.943C11.5551 28.3866 11.4082 29.0885 11.6842 29.8481C11.9838 30.6723 12.6217 31.1412 13.19 31.3772C13.7178 31.5965 14.2817 31.6631 14.7749 31.678C15.7717 31.708 17.0763 31.5358 18.671 31.2141C21.9014 30.5624 26.8592 29.1813 34.0991 26.9083L32.901 23.092C25.6705 25.3619 20.8867 26.6865 17.8799 27.2931C16.356 27.6005 15.4181 27.6956 14.8954 27.6798C14.6289 27.6718 14.6138 27.6373 14.7243 27.6832C14.8752 27.7459 15.2574 27.9692 15.4437 28.4818C15.6065 28.9298 15.4888 29.254 15.4868 29.2599C15.48 29.2791 15.5086 29.1973 15.6494 28.993C15.9289 28.5874 16.4181 28.0281 17.1276 27.2967C17.8237 26.5791 18.6509 25.7772 19.5692 24.8818C20.4775 23.9961 21.4609 23.0322 22.4272 22.028C24.3356 20.0448 26.2942 17.7873 27.5321 15.4968C28.7551 13.234 29.5124 10.4746 28.1518 7.86386C26.8411 5.34888 23.9071 3.67306 19.6152 2.59791C15.2442 1.50294 8.9967 0.912812 0.340043 0.965178L0.364242 4.9651ZM34.0991 26.9083C41.2395 24.6666 46.3029 23.9491 49.7535 24.2461C53.1296 24.5368 54.6898 25.7526 55.4303 27.2195C56.2582 28.8595 56.3569 31.3639 55.5649 34.7526C54.7866 38.0828 53.2244 41.9441 51.1684 46.038C47.061 54.2164 41.1465 63.0047 36.2242 69.7852C33.7694 73.1669 31.5738 76.0321 29.9928 78.0508C29.2026 79.0598 28.5664 79.8567 28.1288 80.4001C27.91 80.6718 27.7409 80.8801 27.627 81.0197C27.5701 81.0896 27.527 81.1422 27.4984 81.1771C27.4841 81.1946 27.4734 81.2076 27.4664 81.216C27.4629 81.2203 27.4604 81.2234 27.4588 81.2253C27.458 81.2263 27.4575 81.2269 27.4571 81.2274C27.4568 81.2277 27.4568 81.2278 29 82.4999C30.5432 83.7721 30.5437 83.7716 30.5444 83.7708C30.5449 83.7701 30.5458 83.769 30.5469 83.7677C30.5491 83.765 30.5522 83.7612 30.5563 83.7563C30.5644 83.7465 30.5762 83.7321 30.5916 83.7132C30.6226 83.6755 30.668 83.6199 30.7274 83.5471C30.846 83.4015 31.0202 83.1871 31.2441 82.909C31.6921 82.3528 32.3396 81.5417 33.142 80.5171C34.7465 78.4684 36.9722 75.5637 39.4612 72.1351C44.4267 65.2951 50.4901 56.3012 54.7429 47.8332C56.8669 43.6039 58.5805 39.4259 59.46 35.6629C60.3258 31.9584 60.4645 28.3158 59.0011 25.4169C57.4503 22.345 54.3878 20.6303 50.0966 20.2609C45.8798 19.8979 40.2309 20.7907 32.901 23.092L34.0991 26.9083Z" fill="#FE761E"/>
</svg>
